# File created by Blade
# Date/Time:  Mon Sep 22 16:45:27 2014
# Frame Rate: 120.000 fps
#------------------------------------------------------
:FULLY-SPECIFIED
:DEGREES
4050
root 5.147761 39.839600 0.915006 27.271418 26.323194 50.262318
RightUpLeg 2.969501 -16.381629 -39.983235
RightLeg 11.750529 -0.000000 -0.000000
RightFoot -18.526533 -13.187806 18.948891
RightToeBase 4.577257 -0.000000 -0.000000
LeftUpLeg -6.781318 10.165172 0.671898
LeftLeg 106.325181 -0.000000 -0.000000
LeftFoot 29.402205 8.093295 -29.661056
LeftToeBase -5.624536 -0.000000 0.000000
Spine 19.056782 -3.979873 -8.737230
RightShoulder -5.068160 -12.920628 -26.250345
RightArm -3.573528 65.835403 47.141072
RightForeArm -18.227587 0.000000 141.463297
RightHand -6.169642 0.000000 -32.472091
RightHandThumb1 -24.326973 -0.000000 -32.862282
LeftShoulder -35.089748 34.343328 -15.281031
LeftArm 24.445810 0.336213 -68.067850
LeftForeArm 38.874737 -0.000000 70.249922
LeftHand -12.097076 -0.000000 -3.497182
LeftHandThumb1 -26.253704 0.000000 33.147579
Head -4.045398 -6.512115 -4.156726
4051
root 5.155067 39.812664 0.928120 26.948371 26.354248 49.755538
RightUpLeg 3.012429 -16.138762 -39.503059
RightLeg 11.594531 -0.000000 -0.000000
RightFoot -18.581479 -13.292552 18.890879
RightToeBase 4.732450 -0.000000 -0.000000
LeftUpLeg -6.738672 9.684270 -0.143855
LeftLeg 104.830169 -0.000000 -0.000000
LeftFoot 28.789559 8.327121 -30.039006
LeftToeBase -4.585383 -0.000000 0.000000
Spine 19.031267 -3.896803 -8.233591
RightShoulder -5.027598 -12.797007 -26.297161
RightArm -3.513821 65.675785 47.060059
RightForeArm -18.348928 -0.000000 141.425621
RightHand -6.201791 -0.000000 -32.435334
RightHandThumb1 -24.326973 -0.000000 -32.862282
LeftShoulder -35.031295 34.406726 -15.147168
LeftArm 24.361563 0.638827 -68.329890
LeftForeArm 38.764194 -0.000000 69.453423
LeftHand -12.060841 0.000000 -3.788297
LeftHandThumb1 -26.253704 0.000000 33.147579
Head -3.987631 -6.508357 -4.110543
4052
root 5.161105 39.780644 0.947462 26.582214 26.352732 49.199207
RightUpLeg 3.072090 -15.793976 -38.976493
RightLeg 11.375313 -0.000000 -0.000000
RightFoot -18.652199 -13.416788 18.808306
RightToeBase 4.868646 -0.000000 -0.000000
LeftUpLeg -6.616005 9.251401 -0.852266
LeftLeg 103.226166 -0.000000 -0.000000
LeftFoot 28.073089 8.683413 -30.610685
LeftToeBase -4.104861 -0.000000 0.000000
Spine 19.007799 -3.746707 -7.732384
RightShoulder -5.018182 -12.774615 -26.276540
RightArm -3.167036 65.553415 47.195185
RightForeArm -18.524856 -0.000000 141.387172
RightHand -6.287257 -0.000000 -32.444175
RightHandThumb1 -24.326973 -0.000000 -32.862282
LeftShoulder -35.047183 34.565860 -15.064285
LeftArm 24.405446 0.986874 -68.548011
LeftForeArm 38.759138 -0.000000 68.648661
LeftHand -12.058736 -0.000000 -3.797907
LeftHandThumb1 -26.253704 0.000000 33.147579
Head -3.900956 -6.598897 -3.982814
4053
root 5.164658 39.745590 0.970721 26.198696 26.317228 48.610039
RightUpLeg 3.095922 -15.386485 -38.418579
RightLeg 11.188472 -0.000000 -0.000000
RightFoot -18.745107 -13.642881 18.719395
RightToeBase 4.934353 -0.000000 -0.000000
LeftUpLeg -6.452052 8.872266 -1.529794
LeftLeg 101.493858 -0.000000 -0.000000
LeftFoot 27.385522 9.106808 -30.934427
LeftToeBase -3.098468 -0.000000 0.000000
Spine 18.983323 -3.620314 -7.279802
RightShoulder -4.934338 -12.668565 -26.223867
RightArm -3.043476 65.354366 47.103832
RightForeArm -18.623857 -0.000000 141.324151
RightHand -6.314544 -0.000000 -32.522604
RightHandThumb1 -24.326973 -0.000000 -32.862282
LeftShoulder -35.084861 34.672103 -14.983860
LeftArm 24.334675 1.310466 -68.770638
LeftForeArm 38.788030 0.000000 67.942659
LeftHand -12.044552 -0.000000 -3.740498
LeftHandThumb1 -26.253704 0.000000 33.147579
Head -3.837823 -6.720405 -3.750652
4054
root 5.169877 39.708662 0.997902 25.793198 26.239755 48.015935
RightUpLeg 3.115910 -14.879551 -37.863868
RightLeg 11.009110 -0.000000 -0.000000
RightFoot -18.868615 -13.878713 18.666429
RightToeBase 4.930256 -0.000000 -0.000000
LeftUpLeg -6.203898 8.538162 -2.179893
LeftLeg 99.638870 -0.000000 -0.000000
LeftFoot 26.485122 9.705175 -31.248254
LeftToeBase -2.694412 -0.000000 0.000000
Spine 18.976375 -3.455618 -6.866010
RightShoulder -4.906621 -12.538094 -26.191864
RightArm -2.490098 65.169138 47.505439
RightForeArm -18.705885 -0.000000 141.251991
RightHand -6.282831 -0.000000 -32.332606
RightHandThumb1 -24.326973 -0.000000 -32.862282
LeftShoulder -35.094973 34.775782 -14.923625
LeftArm 24.196881 1.582366 -68.942923
LeftForeArm 38.803301 -0.000000 67.367220
LeftHand -11.884630 -0.000000 -3.837997
LeftHandThumb1 -26.253704 0.000000 33.147579
Head -3.787152 -6.935217 -3.506179
4055
root 5.177561 39.670124 1.031312 25.354925 26.098133 47.421272
RightUpLeg 3.119508 -14.336384 -37.337078
RightLeg 10.862845 -0.000000 -0.000000
RightFoot -19.022449 -14.082595 18.592634
RightToeBase 5.038979 -0.000000 -0.000000
LeftUpLeg -5.854429 8.234785 -2.817883
LeftLeg 97.657432 -0.000000 -0.000000
LeftFoot 25.457265 10.435771 -31.761853
LeftToeBase -2.365222 -0.000000 0.000000
Spine 18.982801 -3.282126 -6.541133
RightShoulder -4.866689 -12.486680 -26.148424
RightArm -1.662516 64.879594 48.207601
RightForeArm -19.028062 -0.000000 141.154079
RightHand -6.208385 -0.000000 -31.960821
RightHandThumb1 -24.326973 -0.000000 -32.862282
LeftShoulder -35.174092 34.941725 -14.925717
LeftArm 24.089730 1.799905 -69.130901
LeftForeArm 38.930415 -0.000000 66.853358
LeftHand -11.823364 0.000000 -3.899354
LeftHandThumb1 -26.253704 0.000000 33.147579
Head -3.725764 -7.176945 -3.180756
4056
root 5.178564 39.631156 1.062978 24.912989 25.928003 46.791788
RightUpLeg 3.054888 -13.728847 -36.767700
RightLeg 10.775786 -0.000000 -0.000000
RightFoot -19.182160 -14.292910 18.483105
RightToeBase 5.168855 -0.000000 -0.000000
LeftUpLeg -5.505626 7.944045 -3.423922
LeftLeg 95.528818 -0.000000 -0.000000
LeftFoot 24.536994 11.419143 -32.243132
LeftToeBase -2.291046 -0.000000 0.000000
Spine 18.999065 -3.085531 -6.217360
RightShoulder -4.849160 -12.426361 -26.113764
RightArm -0.685793 64.516510 49.067585
RightForeArm -19.370660 -0.000000 141.062120
RightHand -6.306432 -0.000000 -31.951118
RightHandThumb1 -24.326973 -0.000000 -32.862282
LeftShoulder -35.257530 35.107183 -14.957679
LeftArm 24.008572 1.989602 -69.313573
LeftForeArm 38.948990 -0.000000 66.367778
LeftHand -11.709640 -0.000000 -3.919479
LeftHandThumb1 -26.253704 0.000000 33.147579
Head -3.710588 -7.454722 -2.829546
